# xmcd
#
# Track frame offsets:
#	150
#	18894
#	32128
#	49738
#	69352
#	85742
#	102806
#	124914
#	142557
#	162143
#	177697
#	192783
#	205837
#	230872
#	250230
#
# Disc length: 3541 seconds
#
# Revision: 2
# Processed by: cddbd v1.5.2PL0 Copyright (c) Steve Scherf et al.
# Submitted via: audiograbber 1.83.01
#
DISCID=c40dd30f
DTITLE=деспоима окулпиоу (BY ZRAF) - лафи выяиста (GOLDEN EDITION)
DYEAR=2008
DGENRE=Pop
TTITLE0=окулпиоу - пес то думата
TTITLE1=окулпиоу - ам гсоум еды
TTITLE2=окулпиоу - с' ацапы (ла дем жтамеи ауто)
TTITLE3=окулпиоу and ватфгциаммгс - о паяадеисос (де цтиавтгйе циа лас)
TTITLE4=окулпиоу - лг яытас
TTITLE5=окулпиоу - ха се пеяилемы
TTITLE6=окулпиоу - лафи выяиста
TTITLE7=окулпиоу - еды еимаи ои мувтес соу
TTITLE8=окулпиоу - циати ма с' ацапы
TTITLE9=окулпиоу - жикийа
TTITLE10=окулпиоу - деутеяокепта
TTITLE11=окулпиоу - пая' то аккиыс
TTITLE12=окулпиоу - пес то думата (REMIX)
TTITLE13=окулпиоу - лайяиа йи ацапглемои
TTITLE14=окулпиоу - олояжа ьелата
EXTD=
EXTT0=
EXTT1=
EXTT2=
EXTT3=
EXTT4=
EXTT5=
EXTT6=
EXTT7=
EXTT8=
EXTT9=
EXTT10=
EXTT11=
EXTT12=
EXTT13=
EXTT14=
PLAYORDER=
